HIERARCHY
ROOT Hips
{
   OFFSET 0.00000 0.00000 0.00000
   CHANNELS 6 Xposition Yposition Zposition Zrotation Xrotation Yrotation
   JOINT RightUpLeg
   {
      OFFSET -8.945800 -8.667070 0.101652
      CHANNELS 3 Zrotation Xrotation Yrotation
      JOINT RightLeg
      {
         OFFSET 0.000000 -44.422697 1.372700
         CHANNELS 3 Zrotation Xrotation Yrotation
         JOINT RightFoot
         {
            OFFSET 0.253549 -42.092399 -1.460590
            CHANNELS 3 Zrotation Xrotation Yrotation
            JOINT RightToes
            {
               OFFSET 0.040000 -4.415090 8.499099
               CHANNELS 3 Zrotation Xrotation Yrotation
               End Site
               {
                  OFFSET -0.080000 -0.137448 9.779790
               }
            }
         }
      }
   }
   JOINT Spine
   {
      OFFSET 0.000000 11.890501 0.000000
      CHANNELS 3 Zrotation Xrotation Yrotation
      JOINT Spine1
      {
         OFFSET 0.000000 25.657401 0.127663
         CHANNELS 3 Zrotation Xrotation Yrotation
         JOINT HEad
         {
            OFFSET 0.000000 8.734161 0.011341
            CHANNELS 3 Zrotation Xrotation Yrotation
            End Site
            {
               OFFSET -0.290000 12.774200 2.513950
            }
         }
         JOINT LeftShoulder1
         {
            OFFSET 8.990000 -0.362252 -0.220000
            CHANNELS 3 Zrotation Xrotation Yrotation
            JOINT LeftArm
            {
               OFFSET 10.282700 -0.003380 0.322123
               CHANNELS 3 Zrotation Xrotation Yrotation
               JOINT LeftForeArm
               {
                  OFFSET 32.766900 0.099144 -1.424340
                  CHANNELS 3 Zrotation Xrotation Yrotation
                  JOINT LeftHand
                  {
                     OFFSET 27.564301 0.085362 1.022160
                     CHANNELS 3 Zrotation Xrotation Yrotation
                     End Site
                     {
                        OFFSET 16.744301 -0.600000 1.502910
                     }
                  }
               }
            }
         }
         JOINT RightShoulder
         {
            OFFSET -8.990000 -0.362252 -0.220000
            CHANNELS 3 Zrotation Xrotation Yrotation
            JOINT RightArm
            {
               OFFSET -10.282700 -0.003380 0.322123
               CHANNELS 3 Zrotation Xrotation Yrotation
               JOINT RightForeArm
               {
                  OFFSET -32.897098 0.099144 -1.424340
                  CHANNELS 3 Zrotation Xrotation Yrotation
                  JOINT RightHand
                  {
                     OFFSET -27.492101 0.085362 1.022160
                     CHANNELS 3 Zrotation Xrotation Yrotation
                     End Site
                     {
                        OFFSET -16.631201 -0.600000 1.502910
                     }
                  }
               }
            }
         }
      }
   }
   JOINT LeftUpLeg
   {
      OFFSET 8.945800 -8.667070 0.101652
      CHANNELS 3 Zrotation Xrotation Yrotation
      JOINT LeftLeg
      {
         OFFSET 0.000000 -44.422697 1.372700
         CHANNELS 3 Zrotation Xrotation Yrotation
         JOINT LeftFoot
         {
            OFFSET -0.253549 -42.092399 -1.460590
            CHANNELS 3 Zrotation Xrotation Yrotation
            JOINT LeftToes
            {
               OFFSET -0.040000 -4.415090 8.499099
               CHANNELS 3 Zrotation Xrotation Yrotation
               End Site
               {
                  OFFSET 0.080000 -0.047448 9.779790
               }
            }
         }
      }
   }
}
MOTION
Frames: 16
Frame Time: 0.016667
-410.374673 90.467948 -38.822994 57.183754 -16.576374 89.449073 -20.045169 44.482307 6.520536 15.375159 34.461836 9.062393 -47.259151 25.226803 16.483306 17.863588 -8.199441 -56.467803 2.538952 74.678836 136.598087 16.579570 -23.813132 -130.958837 3.675211 27.468313 6.411271 97.174536 244.608335 84.886978 -113.337666 277.460698 -76.610810 -81.903715 67.392090 34.264358 -50.282452 -22.718597 -38.652560 -12.128819 76.663833 54.414133 145.975158 107.202729 136.953831 5.443079 173.753852 68.475932 19.057148 -13.035834 54.812610 16.916019 25.370840 28.820332 -0.633030 32.043908 66.524943 -17.186853 25.425234 -15.061189 -4.104564 -10.355791 -29.005918
-409.878305 91.323603 -38.998541 56.700180 -17.187582 88.832177 -20.270130 45.821581 6.835445 15.749351 34.350869 11.275562 -45.526213 23.418019 16.131957 17.117012 -9.265006 -56.597683 2.372666 77.324790 134.969510 16.918221 -21.828716 -132.052787 3.190175 26.303974 5.473483 94.682282 244.033670 84.435003 -112.758282 280.889344 -79.312334 -89.550098 68.555299 39.984686 -53.495063 -26.672637 -42.767322 -2.588486 77.212782 50.312000 143.471238 103.999616 137.365773 7.449911 173.896043 76.945298 10.835486 -14.151249 53.142925 15.653735 25.299214 27.201672 0.397905 31.433958 66.007290 -16.492550 25.879788 -14.943166 -4.415036 -10.115810 -28.500602
-409.389566 92.125224 -39.061539 55.707132 -17.701711 88.921550 -19.636749 47.178504 6.815646 17.372366 34.230169 14.359617 -44.041579 21.900783 16.017755 16.174004 -10.760349 -56.963429 2.434981 78.803089 132.556719 17.142139 -20.329336 -133.095525 2.205994 24.885255 3.723384 91.398511 242.804728 84.680378 -109.989719 286.101680 -80.192991 -98.541735 68.831990 50.138820 -55.967752 -29.589189 -50.204103 6.535679 73.590610 44.801724 143.352420 91.340113 140.918919 -1.892147 169.702388 79.335434 2.655601 -13.378157 49.381639 14.717371 24.443557 25.153601 1.260441 31.404281 65.063583 -16.094233 26.665723 -14.588801 -5.006940 -9.764266 -27.507902
-408.960947 92.994584 -39.022235 55.803776 -17.623845 89.841494 -18.847801 50.106544 7.182297 20.283150 34.731980 19.494472 -43.819089 21.399780 16.182508 15.291815 -12.431011 -57.613124 3.506955 76.758848 131.030527 19.557519 -17.902983 -134.251316 1.718766 26.739414 -1.435085 87.001228 242.201896 85.098071 -107.316888 294.305147 -80.628034 -112.804235 65.683293 66.465882 -48.808460 -17.397482 -44.834840 9.110842 67.407355 43.612103 146.432794 65.924863 147.581783 -33.004471 158.292953 95.678560 -6.786054 -18.632080 37.327865 13.384072 24.452999 21.962968 2.451774 30.373301 61.106526 -16.392413 27.834030 -15.271543 -5.684994 -9.155658 -26.689471
-408.531793 93.956851 -38.919341 55.737134 -18.532902 88.231332 -19.597242 52.777770 8.266604 21.531816 35.584237 23.839092 -42.973778 20.444708 15.657379 14.537397 -14.028272 -58.678053 5.955150 74.280104 129.604206 24.118370 -18.621877 -133.228331 2.844182 28.648351 -9.484712 82.965597 238.793440 86.649501 -103.374394 302.499024 -76.004378 -121.501388 64.206066 72.941038 -47.702068 -16.391701 -47.493232 17.702466 62.416277 28.358098 144.501791 47.276667 145.521825 -31.141732 143.855532 108.763297 -11.681677 -24.871815 29.632803 10.801621 25.970118 19.736861 3.638370 28.380691 56.137854 -16.848091 28.580747 -15.097510 -6.642073 -8.686527 -25.097197
-407.889627 94.658259 -38.764622 54.750072 -16.640320 88.979408 -20.204053 55.560778 8.171135 23.649026 35.633558 26.636652 -42.677710 19.536791 15.075769 14.068962 -15.263014 -59.747715 8.804163 63.324139 128.985950 24.679478 -20.692473 -133.296592 5.054156 31.927231 -18.619234 76.905724 242.536876 88.488277 -95.872633 306.093835 -64.181915 -126.357175 62.636202 77.169704 -43.774238 -9.770455 -46.487521 25.431588 48.096450 20.267943 142.941707 27.464257 146.354848 -11.592765 126.113993 72.760448 -8.067510 -39.162443 26.084113 6.096857 25.855869 17.352656 5.558223 25.407050 49.449487 -18.062357 27.394839 -15.238524 -7.767616 -8.998728 -23.614662
-406.861299 95.265931 -38.591921 55.028256 -14.175574 90.239735 -21.175304 58.315124 7.517213 24.453667 35.116595 28.332248 -42.864457 19.178254 14.378086 14.594955 -15.419902 -60.709747 14.202975 60.678813 133.024928 20.982601 -16.691871 -133.801808 6.633290 32.837548 -28.218162 71.146112 247.271672 91.733627 -89.355349 305.799781 -46.607206 -134.371432 58.403465 77.280332 -42.708589 -9.977975 -48.402484 30.636264 36.859252 14.085571 143.925773 9.087174 143.532232 6.769057 105.418123 44.693114 4.480520 -41.877321 41.970102 1.519598 27.061116 14.979848 7.062510 23.408073 41.470498 -18.967900 25.663727 -15.112357 -8.969407 -9.705073 -22.014598
-405.580209 95.605114 -38.653471 53.873561 -13.681791 92.109725 -20.752732 59.645522 5.552023 26.781010 33.575400 29.401376 -42.427093 18.709657 13.772272 15.401998 -15.022902 -61.346293 16.683871 57.915824 135.233907 10.906597 -13.799513 -137.392629 10.858450 31.657114 -37.095731 61.905829 251.490215 91.732132 -85.437095 304.799678 -34.893866 -134.815244 55.375376 78.723196 -42.524088 -6.921463 -49.701142 29.419534 28.628593 11.516550 144.209103 -5.360473 137.527867 15.336713 87.787465 24.479418 18.566852 -41.406475 42.703961 -1.221659 27.915272 12.963885 8.869259 19.953590 33.512395 -19.427483 21.893155 -14.558734 -10.372659 -11.645369 -20.131358
-404.392160 95.898188 -38.805894 50.359155 -11.166838 94.157245 -20.159440 59.007602 3.443550 28.904036 31.398714 29.765203 -42.564342 17.977345 12.912287 15.859312 -14.717084 -61.638680 19.301380 53.149120 136.822158 2.172792 -10.632282 -140.568244 14.366741 32.816846 -44.315343 52.226263 257.321913 90.918738 -83.483380 301.861085 -25.744889 -135.075665 50.248681 79.505082 -44.304855 -8.236864 -52.809646 17.804387 17.649038 18.252813 152.057578 -20.717280 138.932454 20.085199 69.370584 11.976561 24.385095 -29.479431 44.404388 -4.312290 26.881003 10.162803 9.635206 16.836952 26.255580 -19.496971 18.101120 -14.782572 -11.276099 -13.067348 -19.157757
-403.354448 96.086529 -39.131798 45.497731 -9.136523 95.895555 -18.107602 56.642830 1.524651 29.900523 28.552436 29.317631 -42.476923 16.822338 11.422217 16.313760 -14.357889 -62.169488 19.404586 46.409435 138.731961 -4.172503 -10.014923 -141.707000 16.314487 32.973080 -50.112429 43.304567 262.172112 88.454870 -83.128470 299.006776 -20.664874 -134.994413 44.799293 80.595214 -45.233177 -7.870587 -52.843234 16.133520 7.551285 13.797812 148.435119 -24.648221 132.643954 24.825236 54.114544 1.314127 30.514017 -26.140937 36.005079 -6.047061 24.350782 8.192338 8.594991 13.870044 20.759846 -18.615308 14.947300 -14.912388 -11.834827 -14.183639 -18.950800
-402.639040 96.029709 -39.376649 44.385206 -9.241870 96.920555 -17.479600 55.953716 1.322479 30.625356 28.041418 29.127031 -41.845345 16.084786 10.771318 16.827318 -13.991845 -62.727153 19.933900 44.297216 142.698266 -1.789649 -8.833059 -140.085377 17.993894 35.170051 -54.286022 39.495767 263.560963 86.285513 -85.892327 295.272575 -19.682271 -133.470817 39.005868 83.717622 -47.475412 -9.752053 -52.875882 9.263386 8.017939 22.547088 160.446813 -22.699616 147.005847 28.715608 41.017909 -5.648826 32.175583 -12.465598 31.651373 -5.910212 25.319127 5.799421 8.105863 11.601587 16.481955 -17.093452 12.467219 -14.965154 -12.180938 -15.170943 -18.843814
-402.157701 96.156672 -39.776525 44.266914 -9.502263 97.260214 -19.030963 55.976610 1.848223 31.319255 27.678957 29.499065 -40.666004 14.532570 10.700618 17.196596 -13.719581 -63.093237 23.137167 41.563419 143.024339 -0.972301 -7.648636 -140.117410 18.518210 37.286515 -57.167215 35.050461 261.997997 83.918143 -87.343250 293.331763 -20.215101 -129.197550 35.985849 85.945117 -47.096634 -11.960577 -51.372797 11.408129 13.182397 23.257889 158.216196 -12.769766 143.976658 37.640261 34.856665 -1.370614 43.620310 -14.671579 26.276634 -5.012933 27.853419 2.638826 6.219113 8.570668 14.458327 -14.622767 9.228115 -15.485301 -12.573851 -16.879336 -18.362212
-401.809763 96.180457 -40.054435 46.223838 -10.386063 97.672026 -21.541751 59.443252 3.480181 31.512710 27.798112 30.196785 -40.228585 13.070659 11.801800 16.915773 -13.803324 -62.745082 24.128413 43.296603 144.842945 2.578576 -5.223030 -138.570127 17.700837 39.556207 -58.802478 31.768911 258.631506 81.000470 -90.098849 291.795052 -24.328833 -124.846992 33.873336 88.327235 -47.218115 -15.427910 -49.586111 7.583535 22.346373 26.180863 154.290476 0.138923 150.813691 43.889792 27.663911 -1.235977 36.724056 -0.848365 12.033577 -3.321132 31.558452 -0.258524 3.835194 6.457652 15.112856 -11.088087 7.583351 -15.977515 -12.869244 -18.079439 -17.733994
-401.342767 96.181820 -40.126209 46.172297 -10.824344 97.621824 -21.858940 60.347733 4.369683 30.951050 26.591523 30.464136 -39.681948 12.143214 12.448772 16.139730 -14.391012 -62.791760 23.421368 45.150334 145.813119 5.408875 -4.269187 -137.248526 17.005948 42.080724 -59.496118 30.559564 254.383183 78.263183 -92.980649 289.721052 -28.475774 -121.906897 31.846150 90.974404 -47.250924 -18.049485 -46.804889 0.856468 27.993230 28.410174 146.945154 8.738941 157.205260 46.120443 22.596778 -2.580620 39.206218 -4.866945 7.901642 -2.566293 32.863039 -2.509153 1.664831 4.055642 18.276411 -6.954485 6.042101 -16.194361 -13.245440 -20.243057 -16.873533
-400.824655 95.848578 -39.965047 47.656538 -12.001926 97.326173 -21.650819 61.627117 5.722516 29.775042 26.626856 30.208188 -39.543968 11.625175 12.401035 15.785769 -14.792306 -63.367661 24.247276 45.218677 145.185370 6.415726 -5.509945 -136.957519 18.678221 42.104182 -59.396561 28.554974 251.720420 74.429015 -96.150362 287.424715 -33.147765 -120.496954 28.698891 93.523861 -49.095454 -20.917524 -45.861694 -2.526259 31.656042 29.631864 144.416796 10.067784 160.260116 43.918089 18.372997 -1.468629 38.646122 2.599543 3.377015 -2.279955 31.940895 -4.343084 1.764236 8.363730 21.844106 -4.447566 4.587940 -15.366175 -13.650691 -21.324817 -15.865216
-400.370363 95.519036 -39.725367 49.873054 -14.270244 97.408941 -20.945774 62.212484 6.200221 30.943110 28.177467 28.750933 -38.771384 11.452341 11.337245 15.998521 -15.041755 -65.000854 24.558463 44.874452 145.274558 6.583723 -6.214787 -135.968289 19.374356 40.321615 -58.070070 26.413813 251.661680 70.731868 -99.310056 283.329033 -36.276009 -120.161455 23.969837 96.124312 -49.375557 -24.281959 -44.913070 -4.662755 32.200237 33.359050 142.212817 12.091177 160.443343 39.617563 15.536221 -0.312528 39.544111 -2.054685 9.568024 -0.575128 32.042729 -7.000836 2.560067 12.718221 24.287237 -2.529804 2.397321 -14.998088 -13.936114 -21.596727 -14.901314
